<mxfile host="app.diagrams.net" modified="2024-04-28T06:30:34.014Z" agent="Mozilla/5.0 (Windows NT 10.0; Win64; x64) AppleWebKit/537.36 (KHTML, like Gecko) Chrome/123.0.0.0 Safari/537.36" etag="KLFyv5AmHRyEDK66P3xD" version="24.3.0" type="github">
  <diagram name="第 1 页" id="FXKaXr__5kz-iJ8h0p-Q">
    <mxGraphModel dx="977" dy="573" grid="0" gridSize="10" guides="1" tooltips="1" connect="1" arrows="1" fold="1" page="1" pageScale="1" pageWidth="827" pageHeight="1169" math="0" shadow="0">
      <root>
        <mxCell id="0" />
        <mxCell id="1" parent="0" />
        <mxCell id="jfTkQFZSDSPLyo2Jwio8-13" value="" style="rounded=1;whiteSpace=wrap;html=1;fillColor=#f5f5f5;fontColor=#333333;strokeColor=#666666;" vertex="1" parent="1">
          <mxGeometry x="12" y="101" width="692" height="267" as="geometry" />
        </mxCell>
        <mxCell id="jfTkQFZSDSPLyo2Jwio8-3" value="" style="edgeStyle=orthogonalEdgeStyle;rounded=0;orthogonalLoop=1;jettySize=auto;html=1;flowAnimation=1;" edge="1" parent="1" source="jfTkQFZSDSPLyo2Jwio8-1" target="jfTkQFZSDSPLyo2Jwio8-2">
          <mxGeometry relative="1" as="geometry" />
        </mxCell>
        <mxCell id="jfTkQFZSDSPLyo2Jwio8-1" value="File/Socket" style="rounded=1;whiteSpace=wrap;html=1;fillColor=#fff2cc;strokeColor=#d6b656;fontFamily=Comic Sans MS;" vertex="1" parent="1">
          <mxGeometry x="146" y="151" width="120" height="60" as="geometry" />
        </mxCell>
        <mxCell id="jfTkQFZSDSPLyo2Jwio8-5" value="" style="edgeStyle=orthogonalEdgeStyle;rounded=0;orthogonalLoop=1;jettySize=auto;html=1;flowAnimation=1;" edge="1" parent="1" source="jfTkQFZSDSPLyo2Jwio8-2" target="jfTkQFZSDSPLyo2Jwio8-4">
          <mxGeometry relative="1" as="geometry" />
        </mxCell>
        <mxCell id="jfTkQFZSDSPLyo2Jwio8-2" value="Channle" style="whiteSpace=wrap;html=1;rounded=1;fillColor=#fff2cc;strokeColor=#d6b656;fontFamily=Comic Sans MS;" vertex="1" parent="1">
          <mxGeometry x="346" y="151" width="120" height="60" as="geometry" />
        </mxCell>
        <mxCell id="jfTkQFZSDSPLyo2Jwio8-4" value="Buffer" style="whiteSpace=wrap;html=1;rounded=1;fillColor=#fff2cc;strokeColor=#d6b656;fontFamily=Comic Sans MS;" vertex="1" parent="1">
          <mxGeometry x="546" y="151" width="120" height="60" as="geometry" />
        </mxCell>
        <mxCell id="jfTkQFZSDSPLyo2Jwio8-8" value="" style="edgeStyle=orthogonalEdgeStyle;rounded=0;orthogonalLoop=1;jettySize=auto;html=1;flowAnimation=1;" edge="1" parent="1" source="jfTkQFZSDSPLyo2Jwio8-6" target="jfTkQFZSDSPLyo2Jwio8-7">
          <mxGeometry relative="1" as="geometry" />
        </mxCell>
        <mxCell id="jfTkQFZSDSPLyo2Jwio8-6" value="Buffer" style="rounded=1;whiteSpace=wrap;html=1;fillColor=#f8cecc;strokeColor=#b85450;fontFamily=Comic Sans MS;" vertex="1" parent="1">
          <mxGeometry x="146" y="262" width="120" height="60" as="geometry" />
        </mxCell>
        <mxCell id="jfTkQFZSDSPLyo2Jwio8-10" value="" style="edgeStyle=orthogonalEdgeStyle;rounded=0;orthogonalLoop=1;jettySize=auto;html=1;flowAnimation=1;" edge="1" parent="1" source="jfTkQFZSDSPLyo2Jwio8-7" target="jfTkQFZSDSPLyo2Jwio8-9">
          <mxGeometry relative="1" as="geometry" />
        </mxCell>
        <mxCell id="jfTkQFZSDSPLyo2Jwio8-7" value="Channle" style="whiteSpace=wrap;html=1;rounded=1;fillColor=#f8cecc;strokeColor=#b85450;fontFamily=Comic Sans MS;" vertex="1" parent="1">
          <mxGeometry x="346" y="262" width="120" height="60" as="geometry" />
        </mxCell>
        <mxCell id="jfTkQFZSDSPLyo2Jwio8-9" value="File/Socket" style="whiteSpace=wrap;html=1;rounded=1;fillColor=#f8cecc;strokeColor=#b85450;fontFamily=Comic Sans MS;" vertex="1" parent="1">
          <mxGeometry x="546" y="262" width="120" height="60" as="geometry" />
        </mxCell>
        <mxCell id="jfTkQFZSDSPLyo2Jwio8-11" value="Read" style="text;html=1;align=center;verticalAlign=middle;whiteSpace=wrap;rounded=0;fontFamily=Comic Sans MS;" vertex="1" parent="1">
          <mxGeometry x="27" y="169" width="60" height="30" as="geometry" />
        </mxCell>
        <mxCell id="jfTkQFZSDSPLyo2Jwio8-12" value="Write" style="text;html=1;align=center;verticalAlign=middle;whiteSpace=wrap;rounded=0;fontFamily=Comic Sans MS;" vertex="1" parent="1">
          <mxGeometry x="34" y="277" width="60" height="30" as="geometry" />
        </mxCell>
      </root>
    </mxGraphModel>
  </diagram>
</mxfile>
